<svg width="1472" height="1100" xmlns="http://www.w3.org/2000/svg" xmlns:xlink="http://www.w3.org/1999/xlink" xml:space="preserve" overflow="hidden"><g transform="translate(-423 -563)"><rect x="426.5" y="566.5" width="1465" height="1093" stroke="#042433" stroke-width="6.875" stroke-miterlimit="8" fill="#E8E8E8"/><text font-family="Aptos,Aptos_MSFontService,sans-serif" font-weight="700" font-size="55" transform="matrix(1 0 0 1 465.978 657)">Ubuntu with KVM</text><rect x="475.5" y="702.5" width="1372" height="461" stroke="#042433" stroke-width="6.875" stroke-miterlimit="8" fill="#A6CAEC"/><text font-family="Aptos,Aptos_MSFontService,sans-serif" font-weight="700" font-size="50" transform="matrix(1 0 0 1 753.783 766)">BIG</text><text font-family="Aptos,Aptos_MSFontService,sans-serif" font-weight="700" font-size="50" transform="matrix(1 0 0 1 835.71 766)">-</text><text font-family="Aptos,Aptos_MSFontService,sans-serif" font-weight="700" font-size="50" transform="matrix(1 0 0 1 852.898 766)">IP Virtual Edition (VM): node 0</text><rect x="524.5" y="795.5" width="480" height="304" stroke="#042433" stroke-width="6.875" stroke-miterlimit="8" fill="#C2F1C8"/><text font-family="Aptos,Aptos_MSFontService,sans-serif" font-weight="700" font-size="48" transform="matrix(1 0 0 1 616.037 864)">Control Plane</text><rect x="1019.5" y="793.5" width="540" height="305" stroke="#042433" stroke-width="6.875" stroke-miterlimit="8" fill="#C2F1C8"/><text font-family="Aptos,Aptos_MSFontService,sans-serif" font-weight="700" font-size="48" transform="matrix(1 0 0 1 1170.11 863)">Data Plane</text><rect x="585.5" y="929.5" width="365" height="129" stroke="#042433" stroke-width="6.875" stroke-miterlimit="8" fill="#FF0000"/><text font-family="Aptos,Aptos_MSFontService,sans-serif" font-weight="700" font-size="37" transform="matrix(1 0 0 1 718.961 989)">mgmt</text><text font-family="Segoe UI,Segoe UI_MSFontService,sans-serif" font-weight="700" font-size="28" transform="matrix(1 0 0 1 672.555 1025)">169.254.x.</text><text font-family="Segoe UI,Segoe UI_MSFontService,sans-serif" font-weight="700" font-size="28" transform="matrix(1 0 0 1 806.618 1025)">x</text><text font-family="Aptos,Aptos_MSFontService,sans-serif" font-weight="700" font-size="28" transform="matrix(1 0 0 1 822.086 1025)">/</text><text font-family="Aptos,Aptos_MSFontService,sans-serif" font-weight="700" font-size="28" transform="matrix(1 0 0 1 832.972 1025)">16</text><rect x="638.5" y="1278.5" width="259" height="154" stroke="#042433" stroke-width="6.875" stroke-miterlimit="8" fill="#FFFFFF"/><text font-family="Aptos,Aptos_MSFontService,sans-serif" font-weight="700" font-size="32" transform="matrix(1 0 0 1 743.56 1352)">br0</text><text font-family="Aptos,Aptos_MSFontService,sans-serif" font-weight="700" font-size="23" transform="matrix(1 0 0 1 680.814 1382)">10.120.92.157/26</text><rect x="667.5" y="1185.5" width="201" height="55" stroke="#042433" stroke-width="6.875" stroke-miterlimit="8" fill="#FFFFFF"/><text font-family="Aptos,Aptos_MSFontService,sans-serif" font-weight="700" font-size="50" transform="matrix(1 0 0 1 704.353 1230)">vnet0</text><path d="M768.5 1058.5 768.5 1185.76" stroke="#000000" stroke-width="6.875" stroke-miterlimit="8" fill="none" fill-rule="evenodd"/><path d="M0 0 0.0490814 37.4466" stroke="#000000" stroke-width="6.875" stroke-miterlimit="8" fill="none" fill-rule="evenodd" transform="matrix(-1 0 0 1 768.549 1240.5)"/><rect x="915.5" y="1194.5" width="155" height="236" stroke="#042433" stroke-width="6.875" stroke-miterlimit="8" fill="#FFFFFF"/><text font-family="Aptos,Aptos_MSFontService,sans-serif" font-weight="700" font-size="50" transform="matrix(1 0 0 1 939.818 1390)">eth0</text><rect x="1088.5" y="1194.5" width="155" height="236" stroke="#042433" stroke-width="6.875" stroke-miterlimit="8" fill="#FFFFFF"/><text font-family="Aptos,Aptos_MSFontService,sans-serif" font-weight="700" font-size="50" transform="matrix(1 0 0 1 1109.97 1378)">eth2</text><rect x="1335.5" y="1194.5" width="146" height="236" stroke="#042433" stroke-width="6.875" stroke-miterlimit="8" fill="#FFFFFF"/><text font-family="Aptos,Aptos_MSFontService,sans-serif" font-weight="700" font-size="50" transform="matrix(1 0 0 1 1359.7 1385)">eth1</text><rect x="1503.5" y="1194.5" width="147" height="236" stroke="#042433" stroke-width="6.875" stroke-miterlimit="8" fill="#FFFFFF"/><text font-family="Aptos,Aptos_MSFontService,sans-serif" font-weight="700" font-size="50" transform="matrix(1 0 0 1 1525.17 1385)">eth3</text><rect x="933.5" y="1210.5" width="117" height="107" stroke="#042433" stroke-width="6.875" stroke-miterlimit="8" fill="#E59EDD"/><text font-family="Aptos,Aptos_MSFontService,sans-serif" font-weight="700" font-size="37" transform="matrix(1 0 0 1 966.955 1275)">vf0</text><rect x="1108.5" y="1210.5" width="116" height="107" stroke="#042433" stroke-width="6.875" stroke-miterlimit="8" fill="#E59EDD"/><text font-family="Aptos,Aptos_MSFontService,sans-serif" font-weight="700" font-size="37" transform="matrix(1 0 0 1 1141.03 1275)">vf0</text><rect x="1349.5" y="1210.5" width="117" height="107" stroke="#042433" stroke-width="6.875" stroke-miterlimit="8" fill="#FFFFCC"/><text font-family="Aptos,Aptos_MSFontService,sans-serif" font-weight="700" font-size="37" transform="matrix(1 0 0 1 1382.92 1275)">vf0</text><rect x="1516.5" y="1210.5" width="117" height="107" stroke="#042433" stroke-width="6.875" stroke-miterlimit="8" fill="#FFFFCC"/><text font-family="Aptos,Aptos_MSFontService,sans-serif" font-weight="700" font-size="37" transform="matrix(1 0 0 1 1549.96 1275)">vf0</text><rect x="1044.5" y="948.5" width="233" height="110" stroke="#042433" stroke-width="6.875" stroke-miterlimit="8" fill="#E59EDD"/><text font-family="Aptos,Aptos_MSFontService,sans-serif" font-weight="700" font-size="23" transform="matrix(1 0 0 1 1096.44 997)">bond0</text><text font-family="Aptos,Aptos_MSFontService,sans-serif" font-weight="700" font-size="23" transform="matrix(1 0 0 1 1165.76 997)">Trunk</text><text font-family="Aptos,Aptos_MSFontService,sans-serif" font-weight="700" font-size="23" transform="matrix(1 0 0 1 1108.74 1025)">1.1         1.2</text><rect x="1291.5" y="948.5" width="233" height="110" stroke="#042433" stroke-width="6.875" stroke-miterlimit="8" fill="#FFFFCC"/><text font-family="Aptos,Aptos_MSFontService,sans-serif" font-weight="700" font-size="23" transform="matrix(1 0 0 1 1343.44 997)">bond1</text><text font-family="Aptos,Aptos_MSFontService,sans-serif" font-weight="700" font-size="23" transform="matrix(1 0 0 1 1412.76 997)">Trunk</text><text font-family="Aptos,Aptos_MSFontService,sans-serif" font-weight="700" font-size="23" transform="matrix(1 0 0 1 1355.75 1025)">1.3         1.4</text><path d="M0 0 95.1042 148.958" stroke="#000000" stroke-width="6.875" stroke-miterlimit="8" fill="none" fill-rule="evenodd" transform="matrix(1 0 0 -1 992.5 1210.46)"/><path d="M1166.13 1209.75 1160.5 1058.5" stroke="#000000" stroke-width="6.875" stroke-miterlimit="8" fill="none" fill-rule="evenodd"/><path d="M1408.02 1209.75 1407.5 1058.5" stroke="#000000" stroke-width="6.875" stroke-miterlimit="8" fill="none" fill-rule="evenodd"/><path d="M1575.32 1210.24 1451.5 1058.5" stroke="#000000" stroke-width="6.875" stroke-miterlimit="8" fill="none" fill-rule="evenodd"/><path d="M551.5 1549.5C551.5 1522.99 681.785 1501.5 842.5 1501.5 1003.21 1501.5 1133.5 1522.99 1133.5 1549.5 1133.5 1576.01 1003.21 1597.5 842.5 1597.5 681.785 1597.5 551.5 1576.01 551.5 1549.5Z" stroke="#042433" stroke-width="6.875" stroke-miterlimit="8" fill="#FFFFFF" fill-rule="evenodd"/><text font-family="Aptos,Aptos_MSFontService,sans-serif" font-weight="400" font-size="83" transform="matrix(1 0 0 1 728.636 1575)">bond0</text><path d="M1182.5 1547C1182.5 1520.21 1312.79 1498.5 1473.5 1498.5 1634.21 1498.5 1764.5 1520.21 1764.5 1547 1764.5 1573.79 1634.21 1595.5 1473.5 1595.5 1312.79 1595.5 1182.5 1573.79 1182.5 1547Z" stroke="#042433" stroke-width="6.875" stroke-miterlimit="8" fill="#FFFFFF" fill-rule="evenodd"/><text font-family="Aptos,Aptos_MSFontService,sans-serif" font-weight="400" font-size="83" transform="matrix(1 0 0 1 1359.23 1573)">bond1</text><path d="M768.5 1432.5 768.5 1502.71" stroke="#000000" stroke-width="6.875" stroke-miterlimit="8" fill="none" fill-rule="evenodd"/><path d="M992.5 1430.5 992.5 1505.78" stroke="#000000" stroke-width="6.875" stroke-miterlimit="8" fill="none" fill-rule="evenodd"/><path d="M0 0 117.376 85.137" stroke="#000000" stroke-width="6.875" stroke-miterlimit="8" fill="none" fill-rule="evenodd" transform="matrix(-1 0 0 1 1165.88 1430.5)"/><path d="M1408.5 1430.5 1408.5 1501.1" stroke="#000000" stroke-width="6.875" stroke-miterlimit="8" fill="none" fill-rule="evenodd"/><path d="M1576.5 1430.5 1576.5 1498.76" stroke="#000000" stroke-width="6.875" stroke-miterlimit="8" fill="none" fill-rule="evenodd"/></g></svg>