<svg width="3429" height="1133" xmlns="http://www.w3.org/2000/svg" xmlns:xlink="http://www.w3.org/1999/xlink" xml:space="preserve" overflow="hidden"><g transform="translate(-486 -581)"><rect x="489.5" y="584.5" width="1694" height="1126" stroke="#042433" stroke-width="6.875" stroke-miterlimit="8" fill="#E8E8E8"/><text font-family="Aptos,Aptos_MSFontService,sans-serif" font-weight="700" font-size="55" transform="matrix(1 0 0 1 529.17 676)">Ubuntu with KVM</text><rect x="538.5" y="721.5" width="1596" height="461" stroke="#042433" stroke-width="6.875" stroke-miterlimit="8" fill="#A6CAEC"/><text font-family="Aptos,Aptos_MSFontService,sans-serif" font-weight="700" font-size="50" transform="matrix(1 0 0 1 950.447 787)">BIG</text><text font-family="Aptos,Aptos_MSFontService,sans-serif" font-weight="700" font-size="50" transform="matrix(1 0 0 1 1032.37 787)">-</text><text font-family="Aptos,Aptos_MSFontService,sans-serif" font-weight="700" font-size="50" transform="matrix(1 0 0 1 1049.56 787)">IP Virtual Edition (VM): node 0</text><rect x="587.5" y="813.5" width="480" height="305" stroke="#042433" stroke-width="6.875" stroke-miterlimit="8" fill="#C2F1C8"/><text font-family="Aptos,Aptos_MSFontService,sans-serif" font-weight="700" font-size="48" transform="matrix(1 0 0 1 679.229 883)">Control Plane</text><rect x="1082.5" y="812.5" width="1020" height="304" stroke="#042433" stroke-width="6.875" stroke-miterlimit="8" fill="#C2F1C8"/><text font-family="Aptos,Aptos_MSFontService,sans-serif" font-weight="700" font-size="48" transform="matrix(1 0 0 1 1448.62 875)">Data Plane</text><rect x="2217.5" y="584.5" width="1694" height="1126" stroke="#042433" stroke-width="6.875" stroke-miterlimit="8" fill="#E8E8E8"/><text font-family="Aptos,Aptos_MSFontService,sans-serif" font-weight="700" font-size="55" transform="matrix(1 0 0 1 2255.23 672)">Ubuntu with KVM</text><rect x="2264.5" y="722.5" width="1597" height="461" stroke="#042433" stroke-width="6.875" stroke-miterlimit="8" fill="#A6CAEC"/><text font-family="Aptos,Aptos_MSFontService,sans-serif" font-weight="700" font-size="50" transform="matrix(1 0 0 1 2671.83 783)">BIG</text><text font-family="Aptos,Aptos_MSFontService,sans-serif" font-weight="700" font-size="50" transform="matrix(1 0 0 1 2753.75 783)">-</text><text font-family="Aptos,Aptos_MSFontService,sans-serif" font-weight="700" font-size="50" transform="matrix(1 0 0 1 2770.94 783)">IP Virtual Edition (VM): node 0</text><rect x="2321.5" y="811.5" width="479" height="304" stroke="#042433" stroke-width="6.875" stroke-miterlimit="8" fill="#C2F1C8"/><text font-family="Aptos,Aptos_MSFontService,sans-serif" font-weight="700" font-size="48" transform="matrix(1 0 0 1 2412.31 881)">Control Plane</text><rect x="2820.5" y="809.5" width="995" height="304" stroke="#042433" stroke-width="6.875" stroke-miterlimit="8" fill="#C2F1C8"/><text font-family="Aptos,Aptos_MSFontService,sans-serif" font-weight="700" font-size="48" transform="matrix(1 0 0 1 3186.39 871)">Data Plane</text><rect x="648.5" y="948.5" width="365" height="129" stroke="#042433" stroke-width="6.875" stroke-miterlimit="8" fill="#FF0000"/><text font-family="Aptos,Aptos_MSFontService,sans-serif" font-weight="700" font-size="37" transform="matrix(1 0 0 1 782.153 1008)">mgmt</text><text font-family="Segoe UI,Segoe UI_MSFontService,sans-serif" font-weight="700" font-size="28" transform="matrix(1 0 0 1 719.132 1044)">10.120.92.159</text><text font-family="Aptos,Aptos_MSFontService,sans-serif" font-weight="700" font-size="28" transform="matrix(1 0 0 1 901.893 1044)">/26</text><rect x="2381.5" y="937.5" width="365" height="129" stroke="#042433" stroke-width="6.875" stroke-miterlimit="8" fill="#FF0000"/><text font-family="Aptos,Aptos_MSFontService,sans-serif" font-weight="700" font-size="37" transform="matrix(1 0 0 1 2515.24 997)">mgmt</text><text font-family="Segoe UI,Segoe UI_MSFontService,sans-serif" font-weight="700" font-size="28" transform="matrix(1 0 0 1 2452.22 1033)">10.120.92.162</text><text font-family="Aptos,Aptos_MSFontService,sans-serif" font-weight="700" font-size="28" transform="matrix(1 0 0 1 2634.98 1033)">/26</text><rect x="701.5" y="1297.5" width="259" height="154" stroke="#042433" stroke-width="6.875" stroke-miterlimit="8" fill="#FFFFFF"/><text font-family="Aptos,Aptos_MSFontService,sans-serif" font-weight="700" font-size="32" transform="matrix(1 0 0 1 806.751 1371)">br0</text><text font-family="Aptos,Aptos_MSFontService,sans-serif" font-weight="700" font-size="23" transform="matrix(1 0 0 1 744.005 1401)">10.120.92.157/26</text><rect x="2437.5" y="1284.5" width="263" height="154" stroke="#042433" stroke-width="6.875" stroke-miterlimit="8" fill="#FFFFFF"/><text font-family="Aptos,Aptos_MSFontService,sans-serif" font-weight="700" font-size="32" transform="matrix(1 0 0 1 2544.13 1358)">br0</text><text font-family="Aptos,Aptos_MSFontService,sans-serif" font-weight="700" font-size="23" transform="matrix(1 0 0 1 2481.41 1388)">10.120.92.157/26</text><rect x="730.5" y="1204.5" width="201" height="55" stroke="#042433" stroke-width="6.875" stroke-miterlimit="8" fill="#FFFFFF"/><text font-family="Aptos,Aptos_MSFontService,sans-serif" font-weight="700" font-size="50" transform="matrix(1 0 0 1 767.544 1248)">vnet0</text><path d="M831.5 1077.5 831.5 1204.76" stroke="#000000" stroke-width="6.875" stroke-miterlimit="8" fill="none" fill-rule="evenodd"/><path d="M0 0 0.0490814 37.4466" stroke="#000000" stroke-width="6.875" stroke-miterlimit="8" fill="none" fill-rule="evenodd" transform="matrix(-1 0 0 1 831.549 1259.5)"/><rect x="2466.5" y="1198.5" width="201" height="55" stroke="#042433" stroke-width="6.875" stroke-miterlimit="8" fill="#FFFFFF"/><text font-family="Aptos,Aptos_MSFontService,sans-serif" font-weight="700" font-size="50" transform="matrix(1 0 0 1 2502.97 1242)">vnet0</text><path d="M2564.5 1066.5 2566.84 1198.44" stroke="#000000" stroke-width="6.875" stroke-miterlimit="8" fill="none" fill-rule="evenodd"/><path d="M2566.5 1253.5 2568.43 1283.93" stroke="#000000" stroke-width="6.875" stroke-miterlimit="8" fill="none" fill-rule="evenodd"/><rect x="995.5" y="1212.5" width="270" height="236" stroke="#042433" stroke-width="6.875" stroke-miterlimit="8" fill="#FFFFFF"/><text font-family="Aptos,Aptos_MSFontService,sans-serif" font-weight="700" font-size="50" transform="matrix(1 0 0 1 1082.58 1400)">eth0</text><rect x="1284.5" y="1212.5" width="271" height="236" stroke="#042433" stroke-width="6.875" stroke-miterlimit="8" fill="#FFFFFF"/><text font-family="Aptos,Aptos_MSFontService,sans-serif" font-weight="700" font-size="50" transform="matrix(1 0 0 1 1372.1 1400)">eth2</text><rect x="1574.5" y="1212.5" width="270" height="236" stroke="#042433" stroke-width="6.875" stroke-miterlimit="8" fill="#FFFFFF"/><text font-family="Aptos,Aptos_MSFontService,sans-serif" font-weight="700" font-size="50" transform="matrix(1 0 0 1 1661.61 1404)">eth1</text><rect x="1863.5" y="1212.5" width="271" height="236" stroke="#042433" stroke-width="6.875" stroke-miterlimit="8" fill="#FFFFFF"/><text font-family="Aptos,Aptos_MSFontService,sans-serif" font-weight="700" font-size="50" transform="matrix(1 0 0 1 1951.12 1404)">eth3</text><rect x="1008.5" y="1228.5" width="117" height="108" stroke="#042433" stroke-width="6.875" stroke-miterlimit="8" fill="#E59EDD"/><text font-family="Aptos,Aptos_MSFontService,sans-serif" font-weight="700" font-size="37" transform="matrix(1 0 0 1 1041.85 1294)">vf0</text><rect x="1137.5" y="1228.5" width="117" height="108" stroke="#042433" stroke-width="6.875" stroke-miterlimit="8" fill="#33CCCC"/><text font-family="Aptos,Aptos_MSFontService,sans-serif" font-weight="700" font-size="37" transform="matrix(1 0 0 1 1170.18 1294)">vf1</text><rect x="1297.5" y="1228.5" width="117" height="108" stroke="#042433" stroke-width="6.875" stroke-miterlimit="8" fill="#E59EDD"/><text font-family="Aptos,Aptos_MSFontService,sans-serif" font-weight="700" font-size="37" transform="matrix(1 0 0 1 1330.6 1294)">vf0</text><rect x="1425.5" y="1228.5" width="117" height="108" stroke="#042433" stroke-width="6.875" stroke-miterlimit="8" fill="#33CCCC"/><text font-family="Aptos,Aptos_MSFontService,sans-serif" font-weight="700" font-size="37" transform="matrix(1 0 0 1 1458.93 1294)">vf1</text><rect x="1588.5" y="1228.5" width="117" height="108" stroke="#042433" stroke-width="6.875" stroke-miterlimit="8" fill="#FFFFCC"/><text font-family="Aptos,Aptos_MSFontService,sans-serif" font-weight="700" font-size="37" transform="matrix(1 0 0 1 1621.64 1294)">vf0</text><rect x="1716.5" y="1228.5" width="117" height="108" stroke="#042433" stroke-width="6.875" stroke-miterlimit="8" fill="#FF9999"/><text font-family="Aptos,Aptos_MSFontService,sans-serif" font-weight="700" font-size="37" transform="matrix(1 0 0 1 1749.97 1294)">vf1</text><rect x="1877.5" y="1228.5" width="117" height="108" stroke="#042433" stroke-width="6.875" stroke-miterlimit="8" fill="#FFFFCC"/><text font-family="Aptos,Aptos_MSFontService,sans-serif" font-weight="700" font-size="37" transform="matrix(1 0 0 1 1910.39 1294)">vf0</text><rect x="2005.5" y="1228.5" width="117" height="108" stroke="#042433" stroke-width="6.875" stroke-miterlimit="8" fill="#FF9999"/><text font-family="Aptos,Aptos_MSFontService,sans-serif" font-weight="700" font-size="37" transform="matrix(1 0 0 1 2038.72 1294)">vf1</text><rect x="2725.5" y="1205.5" width="270" height="236" stroke="#042433" stroke-width="6.875" stroke-miterlimit="8" fill="#FFFFFF"/><text font-family="Aptos,Aptos_MSFontService,sans-serif" font-weight="700" font-size="50" transform="matrix(1 0 0 1 2812.79 1397)">eth0</text><rect x="3014.5" y="1205.5" width="271" height="236" stroke="#042433" stroke-width="6.875" stroke-miterlimit="8" fill="#FFFFFF"/><text font-family="Aptos,Aptos_MSFontService,sans-serif" font-weight="700" font-size="50" transform="matrix(1 0 0 1 3102.31 1397)">eth2</text><rect x="3304.5" y="1205.5" width="270" height="236" stroke="#042433" stroke-width="6.875" stroke-miterlimit="8" fill="#FFFFFF"/><text font-family="Aptos,Aptos_MSFontService,sans-serif" font-weight="700" font-size="50" transform="matrix(1 0 0 1 3391.82 1397)">eth1</text><rect x="3593.5" y="1205.5" width="271" height="236" stroke="#042433" stroke-width="6.875" stroke-miterlimit="8" fill="#FFFFFF"/><text font-family="Aptos,Aptos_MSFontService,sans-serif" font-weight="700" font-size="50" transform="matrix(1 0 0 1 3681.33 1397)">eth3</text><rect x="2739.5" y="1221.5" width="116" height="108" stroke="#042433" stroke-width="6.875" stroke-miterlimit="8" fill="#E59EDD"/><text font-family="Aptos,Aptos_MSFontService,sans-serif" font-weight="700" font-size="37" transform="matrix(1 0 0 1 2772.06 1287)">vf0</text><rect x="2867.5" y="1221.5" width="117" height="108" stroke="#042433" stroke-width="6.875" stroke-miterlimit="8" fill="#33CCCC"/><text font-family="Aptos,Aptos_MSFontService,sans-serif" font-weight="700" font-size="37" transform="matrix(1 0 0 1 2900.39 1287)">vf1</text><rect x="3027.5" y="1221.5" width="117" height="108" stroke="#042433" stroke-width="6.875" stroke-miterlimit="8" fill="#E59EDD"/><text font-family="Aptos,Aptos_MSFontService,sans-serif" font-weight="700" font-size="37" transform="matrix(1 0 0 1 3060.81 1287)">vf0</text><rect x="3156.5" y="1221.5" width="117" height="108" stroke="#042433" stroke-width="6.875" stroke-miterlimit="8" fill="#33CCCC"/><text font-family="Aptos,Aptos_MSFontService,sans-serif" font-weight="700" font-size="37" transform="matrix(1 0 0 1 3189.14 1287)">vf1</text><rect x="3318.5" y="1221.5" width="117" height="108" stroke="#042433" stroke-width="6.875" stroke-miterlimit="8" fill="#FFFFCC"/><text font-family="Aptos,Aptos_MSFontService,sans-serif" font-weight="700" font-size="37" transform="matrix(1 0 0 1 3351.85 1287)">vf0</text><rect x="3447.5" y="1221.5" width="117" height="108" stroke="#042433" stroke-width="6.875" stroke-miterlimit="8" fill="#FF9999"/><text font-family="Aptos,Aptos_MSFontService,sans-serif" font-weight="700" font-size="37" transform="matrix(1 0 0 1 3480.18 1287)">vf1</text><rect x="3607.5" y="1221.5" width="117" height="108" stroke="#042433" stroke-width="6.875" stroke-miterlimit="8" fill="#FFFFCC"/><text font-family="Aptos,Aptos_MSFontService,sans-serif" font-weight="700" font-size="37" transform="matrix(1 0 0 1 3640.6 1287)">vf0</text><rect x="3735.5" y="1221.5" width="117" height="108" stroke="#042433" stroke-width="6.875" stroke-miterlimit="8" fill="#FF9999"/><text font-family="Aptos,Aptos_MSFontService,sans-serif" font-weight="700" font-size="37" transform="matrix(1 0 0 1 3768.93 1287)">vf1</text><rect x="1107.5" y="967.5" width="233" height="110" stroke="#042433" stroke-width="6.875" stroke-miterlimit="8" fill="#E59EDD"/><text font-family="Aptos,Aptos_MSFontService,sans-serif" font-weight="700" font-size="23" transform="matrix(1 0 0 1 1145.88 1016)">slPrivate Trunk</text><text font-family="Aptos,Aptos_MSFontService,sans-serif" font-weight="700" font-size="23" transform="matrix(1 0 0 1 1171.93 1044)">1.1         1.2</text><rect x="1349.5" y="967.5" width="233" height="110" stroke="#042433" stroke-width="6.875" stroke-miterlimit="8" fill="#FFFFCC"/><text font-family="Aptos,Aptos_MSFontService,sans-serif" font-weight="700" font-size="23" transform="matrix(1 0 0 1 1391.92 1016)">slPublic Trunk</text><text font-family="Aptos,Aptos_MSFontService,sans-serif" font-weight="700" font-size="23" transform="matrix(1 0 0 1 1414.27 1044)">1.3         1.4</text><rect x="1594.5" y="967.5" width="233" height="110" stroke="#042433" stroke-width="6.875" stroke-miterlimit="8" fill="#33CCCC"/><text font-family="Aptos,Aptos_MSFontService,sans-serif" font-weight="700" font-size="18" transform="matrix(1 0 0 1 1640.52 1003)">customerPrivate </text><text font-family="Aptos,Aptos_MSFontService,sans-serif" font-weight="700" font-size="18" transform="matrix(1 0 0 1 1686.65 1025)">Trunk</text><text font-family="Aptos,Aptos_MSFontService,sans-serif" font-weight="700" font-size="23" transform="matrix(1 0 0 1 1658.86 1051)">1.5         1.6</text><rect x="1836.5" y="967.5" width="233" height="110" stroke="#042433" stroke-width="6.875" stroke-miterlimit="8" fill="#FF9999"/><text font-family="Aptos,Aptos_MSFontService,sans-serif" font-weight="700" font-size="23" transform="matrix(1 0 0 1 1869.38 1002)">customerPublic</text><text font-family="Aptos,Aptos_MSFontService,sans-serif" font-weight="700" font-size="23" transform="matrix(1 0 0 1 1923.51 1030)">Trunk</text><text font-family="Aptos,Aptos_MSFontService,sans-serif" font-weight="700" font-size="23" transform="matrix(1 0 0 1 1896.59 1057)">1.7           1.8</text><rect x="2837.5" y="967.5" width="233" height="110" stroke="#042433" stroke-width="6.875" stroke-miterlimit="8" fill="#E59EDD"/><text font-family="Aptos,Aptos_MSFontService,sans-serif" font-weight="700" font-size="23" transform="matrix(1 0 0 1 2876.09 1016)">slPrivate Trunk</text><text font-family="Aptos,Aptos_MSFontService,sans-serif" font-weight="700" font-size="23" transform="matrix(1 0 0 1 2902.14 1044)">1.1         1.2</text><rect x="3079.5" y="967.5" width="234" height="110" stroke="#042433" stroke-width="6.875" stroke-miterlimit="8" fill="#FFFFCC"/><text font-family="Aptos,Aptos_MSFontService,sans-serif" font-weight="700" font-size="23" transform="matrix(1 0 0 1 3122.13 1016)">slPublic Trunk</text><text font-family="Aptos,Aptos_MSFontService,sans-serif" font-weight="700" font-size="23" transform="matrix(1 0 0 1 3144.48 1044)">1.3         1.4</text><rect x="3324.5" y="967.5" width="233" height="110" stroke="#042433" stroke-width="6.875" stroke-miterlimit="8" fill="#33CCCC"/><text font-family="Aptos,Aptos_MSFontService,sans-serif" font-weight="700" font-size="18" transform="matrix(1 0 0 1 3370.73 1003)">customerPrivate </text><text font-family="Aptos,Aptos_MSFontService,sans-serif" font-weight="700" font-size="18" transform="matrix(1 0 0 1 3416.86 1025)">Trunk</text><text font-family="Aptos,Aptos_MSFontService,sans-serif" font-weight="700" font-size="23" transform="matrix(1 0 0 1 3389.06 1051)">1.5         1.6</text><rect x="3566.5" y="967.5" width="234" height="110" stroke="#042433" stroke-width="6.875" stroke-miterlimit="8" fill="#FF9999"/><text font-family="Aptos,Aptos_MSFontService,sans-serif" font-weight="700" font-size="23" transform="matrix(1 0 0 1 3599.59 1002)">customerPublic</text><text font-family="Aptos,Aptos_MSFontService,sans-serif" font-weight="700" font-size="23" transform="matrix(1 0 0 1 3653.72 1030)">Trunk</text><text font-family="Aptos,Aptos_MSFontService,sans-serif" font-weight="700" font-size="23" transform="matrix(1 0 0 1 3626.79 1057)">1.7           1.8</text><path d="M0 0 95.1042 148.958" stroke="#000000" stroke-width="6.875" stroke-miterlimit="8" fill="none" fill-rule="evenodd" transform="matrix(1 0 0 -1 1067.5 1228.46)"/><path d="M1356.27 1228.46 1279.5 1079.5" stroke="#000000" stroke-width="6.875" stroke-miterlimit="8" fill="none" fill-rule="evenodd"/><path d="M0 0 473.229 151.25" stroke="#000000" stroke-width="6.875" stroke-miterlimit="8" fill="none" fill-rule="evenodd" transform="matrix(1 0 0 -1 1195.5 1228.75)"/><path d="M0 0 278.438 151.25" stroke="#000000" stroke-width="6.875" stroke-miterlimit="8" fill="none" fill-rule="evenodd" transform="matrix(1 0 0 -1 1484.5 1228.75)"/><path d="M1646.81 1228.75 1416.5 1077.5" stroke="#000000" stroke-width="6.875" stroke-miterlimit="8" fill="none" fill-rule="evenodd"/><path d="M1936.02 1228.75 1515.5 1077.5" stroke="#000000" stroke-width="6.875" stroke-miterlimit="8" fill="none" fill-rule="evenodd"/><path d="M0 0 122.604 148.958" stroke="#000000" stroke-width="6.875" stroke-miterlimit="8" fill="none" fill-rule="evenodd" transform="matrix(1 0 0 -1 1775.5 1228.46)"/><path d="M2064.52 1228.75 2001.5 1077.5" stroke="#000000" stroke-width="6.875" stroke-miterlimit="8" fill="none" fill-rule="evenodd"/><path d="M0 0 88.2292 144.375" stroke="#000000" stroke-width="6.875" stroke-miterlimit="8" fill="none" fill-rule="evenodd" transform="matrix(1 0 0 -1 2797.5 1221.88)"/><path d="M3086.15 1221.88 3002.5 1077.5" stroke="#000000" stroke-width="6.875" stroke-miterlimit="8" fill="none" fill-rule="evenodd"/><path d="M0 0 466.354 146.667" stroke="#000000" stroke-width="6.875" stroke-miterlimit="8" fill="none" fill-rule="evenodd" transform="matrix(1 0 0 -1 2925.5 1222.17)"/><path d="M0 0 271.562 146.667" stroke="#000000" stroke-width="6.875" stroke-miterlimit="8" fill="none" fill-rule="evenodd" transform="matrix(1 0 0 -1 3214.5 1222.17)"/><path d="M3377.69 1222.17 3140.5 1075.5" stroke="#000000" stroke-width="6.875" stroke-miterlimit="8" fill="none" fill-rule="evenodd"/><path d="M3665.9 1222.17 3238.5 1075.5" stroke="#000000" stroke-width="6.875" stroke-miterlimit="8" fill="none" fill-rule="evenodd"/><path d="M0 0 115.729 144.375" stroke="#000000" stroke-width="6.875" stroke-miterlimit="8" fill="none" fill-rule="evenodd" transform="matrix(1 0 0 -1 3505.5 1221.88)"/><path d="M3794.4 1222.17 3724.5 1075.5" stroke="#000000" stroke-width="6.875" stroke-miterlimit="8" fill="none" fill-rule="evenodd"/><path d="M708.5 1568C708.5 1541.21 838.785 1519.5 999.5 1519.5 1160.21 1519.5 1290.5 1541.21 1290.5 1568 1290.5 1594.79 1160.21 1616.5 999.5 1616.5 838.785 1616.5 708.5 1594.79 708.5 1568Z" stroke="#042433" stroke-width="6.875" stroke-miterlimit="8" fill="#FFFFFF" fill-rule="evenodd"/><text font-family="Aptos,Aptos_MSFontService,sans-serif" font-weight="400" font-size="83" transform="matrix(1 0 0 1 885.443 1594)">bond0</text><path d="M1540.5 1565.5C1540.5 1538.99 1670.79 1517.5 1831.5 1517.5 1992.21 1517.5 2122.5 1538.99 2122.5 1565.5 2122.5 1592.01 1992.21 1613.5 1831.5 1613.5 1670.79 1613.5 1540.5 1592.01 1540.5 1565.5Z" stroke="#042433" stroke-width="6.875" stroke-miterlimit="8" fill="#FFFFFF" fill-rule="evenodd"/><text font-family="Aptos,Aptos_MSFontService,sans-serif" font-weight="400" font-size="83" transform="matrix(1 0 0 1 1717.32 1592)">bond1</text><path d="M2450.5 1568C2450.5 1541.21 2580.79 1519.5 2741.5 1519.5 2902.21 1519.5 3032.5 1541.21 3032.5 1568 3032.5 1594.79 2902.21 1616.5 2741.5 1616.5 2580.79 1616.5 2450.5 1594.79 2450.5 1568Z" stroke="#042433" stroke-width="6.875" stroke-miterlimit="8" fill="#FFFFFF" fill-rule="evenodd"/><text font-family="Aptos,Aptos_MSFontService,sans-serif" font-weight="400" font-size="83" transform="matrix(1 0 0 1 2627.11 1594)">bond0</text><path d="M3282.5 1565.5C3282.5 1538.99 3412.79 1517.5 3573.5 1517.5 3734.21 1517.5 3864.5 1538.99 3864.5 1565.5 3864.5 1592.01 3734.21 1613.5 3573.5 1613.5 3412.79 1613.5 3282.5 1592.01 3282.5 1565.5Z" stroke="#042433" stroke-width="6.875" stroke-miterlimit="8" fill="#FFFFFF" fill-rule="evenodd"/><text font-family="Aptos,Aptos_MSFontService,sans-serif" font-weight="400" font-size="83" transform="matrix(1 0 0 1 3458.98 1592)">bond1</text><path d="M831.5 1451.5 866.948 1526.69" stroke="#000000" stroke-width="6.875" stroke-miterlimit="8" fill="none" fill-rule="evenodd"/><path d="M0 0 50.4167 73.3333" stroke="#000000" stroke-width="6.875" stroke-miterlimit="8" fill="none" fill-rule="evenodd" transform="matrix(-1 0 0 1 1129.92 1448.5)"/><path d="M0 0 214.342 85.137" stroke="#000000" stroke-width="6.875" stroke-miterlimit="8" fill="none" fill-rule="evenodd" transform="matrix(-1 0 0 1 1419.84 1448.5)"/><path d="M1709.5 1448.5 1756.1 1521.83" stroke="#000000" stroke-width="6.875" stroke-miterlimit="8" fill="none" fill-rule="evenodd"/><path d="M0 0 52.7083 73.3333" stroke="#000000" stroke-width="6.875" stroke-miterlimit="8" fill="none" fill-rule="evenodd" transform="matrix(-1 0 0 1 1999.21 1448.5)"/><path d="M2568.5 1438.5 2601.34 1524.27" stroke="#000000" stroke-width="6.875" stroke-miterlimit="8" fill="none" fill-rule="evenodd"/><path d="M0 0 32.0833 80.2083" stroke="#000000" stroke-width="6.875" stroke-miterlimit="8" fill="none" fill-rule="evenodd" transform="matrix(-1 0 0 1 2860.58 1441.5)"/><path d="M0 0 202.883 92.012" stroke="#000000" stroke-width="6.875" stroke-miterlimit="8" fill="none" fill-rule="evenodd" transform="matrix(-1 0 0 1 3150.38 1441.5)"/><path d="M3439.5 1441.5 3474.64 1517.12" stroke="#000000" stroke-width="6.875" stroke-miterlimit="8" fill="none" fill-rule="evenodd"/><path d="M0 0 43.5417 80.2083" stroke="#000000" stroke-width="6.875" stroke-miterlimit="8" fill="none" fill-rule="evenodd" transform="matrix(-1 0 0 1 3729.04 1441.5)"/></g></svg>